
<svg xmlns="http://www.w3.org/2000/svg" version="1.1" xmlns:xlink="http://www.w3.org/1999/xlink" preserveAspectRatio="none" x="0px" y="0px" width="353px" height="140px" viewBox="0 0 353 140">
<defs>
<image id="to_go_coffee_cup_svg_Layer_1__Image_" x="0" y="0" width="398" height="581" xlink:href="./images/to_go_coffee_cup_svg_Layer_1__Image_.png"/>

<image id="to_go_coffee_cup_svg_Layer_1__Image__0" x="0" y="0" width="367" height="241" xlink:href="./images/to_go_coffee_cup_svg_Layer_1__Image__0.png"/>

<image id="to_go_coffee_cup_svg_Layer_1__Image__1" x="0" y="0" width="378" height="62" xlink:href="./images/to_go_coffee_cup_svg_Layer_1__Image__1.png"/>

<image id="to_go_coffee_cup_svg_Layer_1__Image__2" x="0" y="0" width="420" height="18" xlink:href="./images/to_go_coffee_cup_svg_Layer_1__Image__2.png"/>

<image id="to_go_coffee_cup_svg_Layer_1__Image__3" x="0" y="0" width="409" height="18" xlink:href="./images/to_go_coffee_cup_svg_Layer_1__Image__3.png"/>

<path id="cup_with_liner_0_Layer0_0_MEMBER_1_1_STROKES" stroke="#000000" stroke-width="0.25" stroke-linejoin="miter" stroke-linecap="butt" stroke-miterlimit="4" fill="none" d="
M 49.74196014404299 408.8640014648437
Q 57.53264007568367 410.4149238586426 70.87778625488289 412.6150695800781 87.61332092285159 415.1758949279785 100.30924377441409 416.402205657959 124.22230300903323 418.78269119262694 148.09929428100588 418.710555267334 163.42817840576174 418.710555267334 179.4423538208008 417.4842445373535 196.14182052612307 416.18579788208007 210.10012207031252 414.021720123291 217.5661903381348 412.9396812438965 227.98983154296877 410.91987533569335 232.24585113525393 410.0903121948242 237.8724533081055 408.82793350219725 238.0888610839844 407.02453536987304 238.16099700927737 406.0867683410645
L 282.95740661621096 9.230975341796892 283.7509017944336 9.230975341796892
Q 287.14129028320315 9.014567565917972 287.14129028320315 6.706217956542986 287.14129028320315 4.902819824218767 285.3739601135254 4.109324645996082
L 283.6066299438477 3.676509094238284 268.45808563232424 3.027285766601551
Q 259.3689590454102 2.6666061401367074 241.19070587158205 2.0895187377929716 218.10720977783205 1.3320915222167997 195.02371368408205 1.0074798583984403 171.65167388916018 0.6828681945800668 148.2796340942383 0.574664306640642 111.49031219482424 0.574664306640642 77.80283508300778 1.2960235595703296 63.51992187500002 1.5845672607421761 34.80982360839852 2.4501983642578153 14.215016937255882 3.171557617187503 4.152055358886798 3.676509094238284 3.2864242553711165 3.7125770568847685 2.384725189209007 4.109324645996082 0.6173950195312159 4.902819824218767 0.6173950195312159 6.706217956542986 0.6173950195312159 8.14893646240236 1.8437057495117415 8.798159790039051 2.7093368530274233 9.230975341796892 4.007783508300804 9.230975341796892
L 4.80127868652346 9.230975341796892 49.59768829345711 406.0867683410645
Q 49.489484405517544 407.1327392578125 49.74196014404299 408.8640014648437 Z"/>
</defs>

<g transform="matrix( 0.199981689453125, 0.0013427734375, -0.0013427734375, 0.199981689453125, 9.7,55.9) ">
<g transform="matrix( 0.7213592529296875, 0, 0, 0.7213592529296875, -0.05,0) ">
<use xlink:href="#to_go_coffee_cup_svg_Layer_1__Image_"/>
</g>

<g transform="matrix( 0.7213592529296875, 0, 0, 0.7213592529296875, -398.15,-99.55) ">
<use xlink:href="#cup_with_liner_0_Layer0_0_MEMBER_1_1_STROKES" transform="matrix( 1.386260986328125, 0, 0, 1.386260986328125, 551.9,138) "/>
</g>

<g transform="matrix( 0.7213592529296875, 0, 0, 0.7213592529296875, 11.3,108.65) ">
<use xlink:href="#to_go_coffee_cup_svg_Layer_1__Image__0"/>
</g>
</g>

<g transform="matrix( -0.199981689453125, 0.0000152587890625, -0.0000152587890625, -0.199981689453125, 338.9,139.25) ">
<g transform="matrix( 0.721343994140625, 0, 0, 0.721343994140625, 14.9,-0.1) ">
<use xlink:href="#to_go_coffee_cup_svg_Layer_1__Image__1"/>
</g>

<g transform="matrix( 0.721343994140625, 0, 0, 0.721343994140625, 0,49.6) ">
<use xlink:href="#to_go_coffee_cup_svg_Layer_1__Image__2"/>
</g>

<g transform="matrix( 0.721343994140625, 0, 0, 0.721343994140625, 4,40.15) ">
<use xlink:href="#to_go_coffee_cup_svg_Layer_1__Image__3"/>
</g>
</g>
</svg>
