<?xml version="1.0" encoding="UTF-8"?><svg id="Layer_1" xmlns="http://www.w3.org/2000/svg" viewBox="0 0 615.2947 636.2661"><defs><style>.cls-1{fill:#36558f;stroke:#fff;stroke-miterlimit:10;stroke-width:21px;}.cls-2{fill:none;stroke:#36558f;stroke-linecap:round;stroke-linejoin:round;stroke-width:8px;}</style></defs><g><path class="cls-2" d="M62.7857,460.887c51.7134-41.4798,134.9019-68.387,228.7143-68.387,91.5646,0,173.0085,25.6333,224.9433,65.4308"/><g><path class="cls-2" d="M123.5,288.5C123.5,132.2813,198.1154,5.5399,290.3849,4.5239c-.6293-.0041-1.2548-.0239-1.8849-.0239-84.3874,0-160.1784,36.8055-212.1961,95.2395C31.6376,149.9154,4.5,216.0385,4.5,288.5c0,156.8489,127.1511,284,284,284,.6302,0,1.2557-.0198,1.8849-.0239-92.2695-1.0161-166.8849-127.7574-166.8849-283.9761Z"/><path class="cls-2" d="M295.8449,4.5933c90.7757,3.8957,163.6551,129.5135,163.6551,283.9067s-72.8794,280.011-163.6551,283.9067c153.4542-3.8957,276.6551-129.5135,276.6551-283.9067S449.2991,8.489,295.8449,4.5933Z"/><path class="cls-2" d="M291.5,4.5c-.3728,0-.7428,.0198-1.1151,.0239,1.8227,.0119,3.6456,.0234,5.46,.0695-1.4438-.062-2.8922-.0933-4.3449-.0933Z"/><path class="cls-2" d="M291.5,572.5c1.4527,0,2.9011-.0314,4.3449-.0933-1.8144,.046-3.6373,.0576-5.46,.0695,.3723,.0041,.7422,.0239,1.1151,.0239Z"/></g><path class="cls-2" d="M506.4028,106.3557c-52.009,34.4537-127.6739,56.1443-211.9028,56.1443-88.3939,0-167.3557-23.8887-219.4426-61.3478"/><line class="cls-2" x1="291" y1="4" x2="291" y2="572"/><line class="cls-2" x1="4" y1="288" x2="572" y2="288"/></g><polygon class="cls-1" points="329.2683 311.5 526.3184 332.9304 472.8981 376.848 600.5 531.4501 490.9656 621.5 361.163 464.2316 307.7301 508.1596 329.2683 311.5"/></svg>