<?xml version="1.0" encoding="UTF-8"?><svg id="Layer_1" xmlns="http://www.w3.org/2000/svg" viewBox="0 0 407.1068 207.9043"><defs><style>.cls-1{fill:#f6a2ad;stroke:#f6a2ad;}.cls-1,.cls-2{stroke-miterlimit:6.3634;stroke-width:.1495px;}.cls-2{fill:#eb7077;stroke:#eb7077;}</style></defs><path class="cls-2" d="M100.4826,6.2896c1.4731-2.5056,3.3885-4.9125,6.1407-6.0929,1.1295-.1957,2.259-.097,3.3885-.097h55.6112c-1.6211,1.3745-3.1928,2.7999-4.273,4.666-2.8492,4.6675-4.7662,9.8744-6.5336,15.0812-5.0112,15.7223-8.4999,31.8838-11.89,48.0468-1.5281,7.3222-2.9854,14.659-4.3716,22.0094-4.2253,23.9741-8.5969,47.8972-14.0504,71.6247-2.6026,10.9562-5.2562,21.9107-9.2842,32.4724-1.8677,4.3732-3.6844,9.0392-7.2702,12.2813-.8352,.7382-1.6704,1.6704-2.8508,1.524H55.9739c-3.3408-.0986-6.6322,.1957-9.973-.148,2.2113-1.7181,4.176-3.783,5.4534-6.2393,3.6844-7.0252,5.9927-14.639,8.204-22.205,3.4394-12.1827,6.1884-24.5134,8.7942-36.844,1.6211-8.1054,3.5365-16.163,4.7153-24.3177,1.3268-9.0885,3.3408-18.0784,4.9619-27.1176,2.5549-13.3138,5.2562-26.626,8.2533-39.8412,2.407-10.3166,4.8632-20.5856,8.1547-30.6556,1.6227-4.8632,3.3885-9.6771,5.945-14.1474Z"/><path class="cls-1" d="M165.6246,.0996c1.4238,0,2.8476-.0493,4.273,0,3.1435,1.6704,5.797,4.3223,7.2702,7.6138,1.9647,3.7337,3.5874,7.6647,5.0589,11.6927,4.9141,15.1799,8.2549,30.802,11.5957,46.3748,2.8476,13.9517,5.5521,27.9528,8.1054,42.0031,.1973,.7366-.0477,1.769,.9338,1.9647-3.538,18.4713-7.0252,36.992-11.4461,55.3169-2.4085,9.8744-4.9634,19.6995-8.5969,29.2302-1.9663,4.7646-3.9803,9.9714-8.1563,13.3631-2.6519,.5886-4.5689-1.4254-6.1884-3.2437-2.7999-3.5858-4.5212-7.8111-6.1916-12.0363-5.5521-15.129-8.9406-30.899-12.3784-46.6198-2.6042-12.2336-4.9141-24.5627-7.3211-36.844-1.0818-6.2409-2.5533-12.3816-3.3885-18.6193-.148-.0986-.4932-.2959-.6395-.3929,1.3863-7.3504,2.8436-14.6872,4.3716-22.0094,3.3901-16.163,6.8788-32.326,11.89-48.0452,1.7674-5.2084,3.6844-10.4153,6.5336-15.0812,1.0818-1.8677,2.6519-3.2931,4.273-4.6675h.0016Z"/><path class="cls-2" d="M227.079,8.5979c1.7706-3.3885,3.931-7.1715,7.7633-8.449,19.5038-.0986,39.0076-.0493,58.5098-.0493-1.8183,1.8167-3.7337,3.6351-4.9634,5.9434-3.7814,6.7802-5.9927,14.2969-8.2517,21.7151-5.797,20.436-9.8744,41.3143-13.7561,62.1926-3.5858,20.5856-7.4181,41.1679-11.7898,61.6549-2.259,10.3151-4.6182,20.5824-7.6138,30.7511-1.917,6.2886-3.9294,12.6265-7.0745,18.4729-1.524,2.652-3.2931,5.5521-6.19,6.9266-18.6193,.148-37.2879,0-55.9055,.0477-1.0325,0-2.1126,0-3.1451-.1464,4.176-3.3885,6.19-8.5969,8.1563-13.3631,3.6351-9.5292,6.1884-19.3542,8.5969-29.2286,4.421-18.325,7.9081-36.844,11.4461-55.3169,4.273-23.8261,8.7449-47.6522,14.4433-71.184,2.652-10.1687,5.2068-20.4853,9.7758-29.9668h-.0016Z"/><path class="cls-1" d="M293.3521,.0996c1.5718,0,3.1928-.0493,4.7646,0,2.5549,1.3268,4.3732,3.5858,5.9943,5.8941,2.652,4.2253,4.3223,8.9915,6.042,13.6574,4.0773,12.5279,7.1238,25.3995,9.9237,38.2694,3.7337,17.3418,6.9759,34.7823,10.1687,52.2211,.7859,4.176,1.5718,8.3997,2.0633,12.6265l.7366,.7366c-1.7674,2.4563-2.4563,5.4041-3.4378,8.204-3.0958,9.973-5.1098,20.2897-6.8295,30.557-1.3252,8.0561-3.1435,16.0644-5.6491,23.8261-1.8661,5.7477-4.1266,11.4461-7.8588,16.26-1.7706,2.3099-4.1776,4.0773-6.8295,5.2561-4.0773,.4423-6.4859-3.4871-8.4506-6.3857-4.0773-7.1238-6.287-15.0812-8.6462-22.8446-7.7617-28.7387-12.8222-58.1645-18.2741-87.3948-.0384-.4391-.2981-.8284-.6888-1.0325,3.8817-20.8783,7.959-41.7565,13.7561-62.1926,2.259-7.4181,4.4703-14.9349,8.2533-21.7151,1.2281-2.3083,3.1435-4.1267,4.9619-5.9434h0ZM.0174,111.8614c1.279-.0986,2.5565-.2943,3.8817-.2943H57.447c2.259,.2943,4.6182,.0986,6.7802,1.0818,3.1658,1.3014,5.929,3.4206,8.0067,6.1407,.2466-.148,.6888-.5409,.9338-.7381-1.1788,8.1547-3.0942,16.2107-4.7153,24.3177-2.6042,12.3307-5.3548,24.6613-8.7942,36.844-2.2113,7.5661-4.5196,15.1799-8.204,22.205-1.2774,2.4563-3.2421,4.5196-5.4534,6.2393-.8352,.148-1.4731-.4423-2.162-.8845-2.3083-1.4731-3.6351-4.028-5.0589-6.3363-6.7309-15.3278-7.4674-32.2767-11.6434-48.2917-2.1126-8.0067-4.7169-15.9657-8.5476-23.3345-2.3592-4.4226-5.2562-8.6462-9.0392-12.0363-2.7999-2.259-6.0436-4.0773-9.5308-4.9125h-.0016Z"/><path class="cls-2" d="M337.3692,116.9712c3.0942-3.4887,7.7124-5.6984,12.38-5.5027h40.2834c5.5998,.0986,11.2489-.1957,16.8502,.148-1.6704,1.1295-3.6844,1.5718-5.4534,2.5056-6.1407,2.7999-11.3968,7.4658-14.7376,13.3122-5.3548,9.3351-7.2224,20.0447-8.7942,30.557-1.5718,10.3166-1.5224,20.9769-4.8632,30.9992-2.259,7.0252-5.6984,14.0981-11.6434,18.7163-18.4697,.1973-36.9426,.0493-55.3647,.0986-1.2281,0-2.407,.0477-3.5858-.1973,2.652-1.1772,5.0589-2.9463,6.8279-5.2562,3.7337-4.8139,5.9943-10.5123,7.8604-16.26,2.5056-7.7633,4.3239-15.7701,5.6491-23.8261,1.7197-10.2673,3.7337-20.5856,6.8295-30.557,.9816-2.7999,1.6704-5.7477,3.4378-8.204,1.4747-2.162,2.4563-4.6675,4.3239-6.5336Z"/></svg>